<?xml version="1.0" standalone="no"?>
<!DOCTYPE svg PUBLIC "-//W3C//DTD SVG 20010904//EN"
 "http://www.w3.org/TR/2001/REC-SVG-20010904/DTD/svg10.dtd">
<svg version="1.0" xmlns="http://www.w3.org/2000/svg"
 width="821.000000pt" height="773.000000pt" viewBox="0 0 821.000000 773.000000"
 preserveAspectRatio="xMidYMid meet">

<g transform="translate(0.000000,773.000000) scale(0.100000,-0.100000)"
fill="#000000" stroke="none">
<path d="M2850 7707 c-30 -7 -66 -20 -80 -29 -14 -9 -78 -37 -143 -63 -115
-45 -124 -47 -265 -55 -81 -5 -171 -14 -201 -20 -149 -28 -309 -92 -444 -176
-215 -134 -312 -192 -476 -286 -96 -54 -205 -121 -241 -148 -82 -61 -202 -185
-253 -263 -49 -74 -110 -204 -132 -282 -10 -33 -30 -76 -46 -96 -16 -20 -38
-61 -49 -90 -12 -30 -50 -90 -85 -134 -208 -259 -346 -613 -412 -1050 -22
-147 -25 -652 -5 -805 64 -488 191 -866 420 -1251 67 -112 69 -119 74 -195 16
-251 317 -596 595 -682 37 -12 88 -26 112 -32 l44 -11 -34 -35 c-29 -30 -39
-34 -85 -34 -118 0 -295 -47 -392 -103 -24 -14 -32 -26 -32 -47 0 -23 -8 -33
-42 -52 -37 -20 -43 -28 -46 -59 -2 -27 3 -44 22 -65 l24 -29 456 1 c375 1
456 -2 456 -13 0 -63 -60 -359 -87 -429 -15 -39 -65 -70 -133 -83 -74 -15
-100 -26 -100 -45 0 -10 58 -14 268 -20 147 -3 389 -11 537 -16 149 -5 477
-12 729 -16 434 -7 459 -6 453 10 -4 10 -7 21 -7 26 0 4 -42 11 -92 14 -74 6
-1510 76 -1541 76 -13 0 1 57 34 138 37 90 59 200 59 293 l0 69 660 0 c575 0
660 2 660 15 0 11 8 13 33 8 17 -4 111 -20 207 -37 204 -36 187 -19 189 -193
l1 -113 33 6 c80 13 75 9 83 81 9 90 -1 241 -19 286 -12 28 -22 37 -49 41 -35
6 -558 56 -583 56 -11 0 -15 -11 -15 -40 l0 -40 -107 0 c-189 1 -1873 57
-1879 62 -9 10 78 47 156 67 41 10 111 22 155 26 72 6 86 11 140 49 33 23 69
56 80 73 15 24 32 35 68 43 40 10 51 18 64 46 14 29 27 37 110 66 92 32 93 33
93 65 l0 33 270 0 270 0 0 39 c0 21 6 44 14 50 11 9 16 0 30 -47 l16 -59 78
-16 c177 -37 213 -41 382 -40 147 1 193 5 290 26 63 14 127 30 143 36 l27 11
0 484 0 485 53 3 52 3 3 45 c3 41 -1 49 -30 75 l-33 30 -390 -3 c-214 -2 -394
-7 -399 -12 -5 -5 -6 -19 -3 -32 6 -22 18 -25 244 -61 131 -22 269 -41 306
-44 l67 -6 0 -428 0 -429 -27 -17 c-44 -29 -295 -31 -405 -4 -111 28 -243 93
-262 130 -12 22 -27 30 -73 41 -39 10 -70 25 -95 48 l-38 34 0 215 0 215 25
20 c17 13 25 29 25 50 0 40 48 85 107 100 29 7 48 18 54 32 5 11 18 33 30 48
12 14 19 30 16 36 -4 5 -44 23 -90 41 -79 29 -86 30 -113 16 -36 -19 -54 -19
-54 -1 0 8 -12 24 -28 36 -24 20 -35 22 -104 17 l-78 -5 0 34 0 34 -180 0
-180 0 0 29 c0 25 6 31 50 49 l50 21 0 167 0 166 23 -6 c12 -4 35 -9 50 -13
24 -5 41 -25 52 -60 0 -1 77 2 170 7 150 7 214 4 545 -24 365 -30 375 -32 378
-53 4 -25 41 -30 227 -35 109 -3 110 -3 113 21 l4 24 196 -6 c131 -5 201 -11
213 -20 9 -6 44 -31 77 -54 46 -32 63 -52 73 -80 20 -65 55 -126 99 -175 38
-44 43 -56 55 -135 27 -169 35 -331 35 -718 l0 -391 -45 -68 c-25 -38 -45 -74
-45 -80 0 -6 -27 -35 -59 -64 -133 -116 -200 -368 -133 -498 59 -114 211 -189
412 -201 262 -17 415 123 535 491 88 269 112 501 91 867 -18 296 -29 599 -23
599 2 0 18 -5 36 -11 27 -9 31 -16 31 -45 l0 -34 113 0 c61 -1 267 -5 457 -10
l345 -8 22 -29 c22 -27 23 -34 23 -244 l0 -216 -91 -13 c-87 -13 -93 -15 -111
-46 -12 -20 -30 -35 -46 -38 -15 -3 -170 -33 -344 -67 -306 -59 -318 -62 -318
-84 0 -13 8 -26 18 -30 9 -4 97 -10 194 -13 176 -5 300 5 438 33 61 13 81 13
68 -1 -4 -3 -37 -10 -75 -16 -96 -15 -107 -33 -138 -220 -50 -308 -75 -603
-75 -903 0 -189 1 -203 24 -250 27 -57 60 -91 131 -131 84 -48 145 -97 141
-114 -44 -160 -69 -221 -122 -293 -60 -82 -112 -121 -259 -194 l-80 -40 -325
-12 c-179 -6 -493 -11 -699 -11 l-373 0 -29 24 c-47 40 -141 83 -196 91 -31 4
-58 14 -69 26 -15 17 -32 19 -144 19 -115 0 -129 2 -145 20 -38 42 -132 90
-206 105 -41 9 -79 21 -85 28 -17 19 -46 105 -39 117 3 5 22 10 41 10 26 0 34
4 34 18 0 11 -8 26 -17 34 -18 15 -97 58 -108 58 -3 0 -5 -20 -5 -45 0 -44 -1
-45 -27 -39 -40 10 -43 12 -43 43 0 25 -4 29 -40 34 -93 12 -190 85 -190 143
0 22 -8 41 -24 57 l-25 25 -305 7 -306 7 0 -50 0 -50 43 -5 c23 -4 136 -9 250
-13 l208 -7 39 -82 c46 -96 85 -129 173 -147 52 -11 57 -14 57 -39 0 -25 6
-29 64 -49 60 -20 64 -23 71 -58 4 -20 15 -53 25 -73 18 -34 22 -37 75 -41 39
-3 81 -17 138 -46 197 -98 436 -194 519 -207 115 -19 367 -52 528 -70 183 -20
658 -20 801 0 169 23 531 84 566 94 34 10 227 157 238 181 4 8 11 42 15 75 8
52 14 64 50 98 36 32 41 43 40 75 -3 52 -3 52 33 41 168 -51 480 -65 658 -29
126 26 220 59 340 122 133 69 244 155 375 290 67 69 124 120 144 126 47 17
123 76 153 120 15 21 45 78 66 126 33 74 45 91 83 115 66 42 88 97 174 436 41
165 82 315 91 334 24 53 67 385 93 721 10 131 15 154 50 240 138 343 158 620
94 1305 -36 397 -143 1022 -199 1171 -33 87 -101 197 -167 269 -41 45 -57 73
-80 143 -71 211 -245 470 -421 624 -146 128 -302 225 -482 297 -98 39 -101 42
-155 112 -90 119 -206 183 -352 196 -65 6 -69 8 -104 50 -52 63 -104 94 -192
114 -42 9 -144 47 -227 83 -104 45 -173 69 -225 77 -41 7 -93 20 -115 29 -33
15 -95 20 -375 29 -1046 36 -2129 49 -2220 28z m-910 -4432 l0 -35 130 0 130
0 0 -34 c0 -25 -6 -38 -25 -50 l-25 -16 0 -365 0 -365 25 -10 c14 -5 25 -14
25 -18 0 -16 -86 -22 -291 -22 -167 0 -199 2 -199 15 0 7 -20 31 -45 51 -53
45 -101 110 -111 150 -10 42 -65 106 -139 160 l-65 48 0 182 0 183 38 10 c20
6 42 11 48 11 6 0 17 13 24 29 24 59 37 64 243 87 262 29 237 30 237 -11z"/>
<path d="M1630 2832 l0 -59 53 4 c28 3 58 6 65 9 27 8 5 36 -55 70 l-63 35 0
-59z"/>
<path d="M5386 2848 c-11 -6 -87 -27 -170 -48 -146 -35 -151 -37 -154 -63 -2
-20 -14 -33 -41 -46 -49 -26 -65 -45 -49 -59 13 -10 170 -62 189 -62 5 0 9 15
9 34 0 38 -12 34 185 67 206 34 411 97 402 122 -3 11 -280 67 -327 67 -14 -1
-34 -6 -44 -12z"/>
<path d="M2662 2778 l3 -53 60 3 c65 4 79 11 70 33 -5 15 -105 69 -126 69 -6
0 -9 -21 -7 -52z"/>
<path d="M1840 1539 l0 -62 38 7 c20 3 50 6 65 6 50 0 30 36 -40 76 l-63 35 0
-62z"/>
<path d="M2410 1484 l0 -56 58 7 c66 8 81 17 62 40 -12 15 -101 65 -115 65 -3
0 -5 -25 -5 -56z"/>
<path d="M3080 1484 l0 -57 46 7 c26 3 55 6 65 6 12 0 19 7 19 20 0 14 -17 28
-60 50 -33 16 -62 30 -65 30 -3 0 -5 -25 -5 -56z"/>
<path d="M1732 1333 l3 -58 45 3 c63 5 80 11 80 30 0 17 -66 63 -109 77 -21 6
-22 4 -19 -52z"/>
<path d="M2042 1333 l3 -58 45 3 c101 7 108 32 21 80 -32 17 -62 32 -65 32 -4
0 -6 -26 -4 -57z"/>
<path d="M2352 1333 l3 -58 35 3 c71 5 100 13 100 27 0 13 -110 85 -131 85 -6
0 -9 -24 -7 -57z"/>
<path d="M3080 1282 l0 -59 53 4 c28 3 58 6 65 9 27 8 5 36 -55 70 l-63 35 0
-59z"/>
<path d="M3440 1075 l0 -55 43 0 c106 0 118 34 27 80 -33 16 -62 30 -65 30 -3
0 -5 -25 -5 -55z"/>
<path d="M3130 920 l0 -63 38 7 c20 3 50 6 65 6 23 0 28 4 25 22 -2 14 -23 32
-65 56 l-63 34 0 -62z"/>
<path d="M3650 765 l0 -55 53 0 c97 0 102 32 11 82 -27 15 -52 28 -56 28 -5 0
-8 -25 -8 -55z"/>
<path d="M3440 711 l0 -59 43 5 c92 10 107 22 70 55 -18 15 -97 58 -108 58 -3
0 -5 -27 -5 -59z"/>
<path d="M3700 504 l0 -57 62 7 c70 8 73 9 65 29 -5 12 -107 77 -122 77 -3 0
-5 -25 -5 -56z"/>
</g>
</svg>
