<?xml version="1.0" standalone="no"?>
<!DOCTYPE svg PUBLIC "-//W3C//DTD SVG 20010904//EN"
 "http://www.w3.org/TR/2001/REC-SVG-20010904/DTD/svg10.dtd">
<svg version="1.0" xmlns="http://www.w3.org/2000/svg"
 width="213.000000pt" height="237.000000pt" viewBox="0 0 213.000000 237.000000"
 preserveAspectRatio="xMidYMid meet">

<g transform="translate(0.000000,237.000000) scale(0.100000,-0.100000)"
fill="#000000" stroke="none">
<path d="M1536 2160 c3 -52 10 -137 16 -188 10 -87 9 -95 -9 -120 -21 -29
-150 -108 -196 -120 -15 -4 -28 -11 -30 -16 -2 -8 81 -43 148 -63 29 -8 30
-11 36 -78 7 -69 21 -104 92 -226 14 -24 33 -74 43 -110 15 -57 16 -71 4 -98
-15 -38 -57 -53 -75 -27 -19 25 -40 19 -100 -29 -31 -25 -68 -51 -83 -58 -15
-6 -54 -29 -86 -49 -33 -21 -65 -38 -72 -38 -8 0 -41 -14 -75 -32 l-61 -32
-47 18 c-25 10 -86 24 -136 31 -118 18 -142 26 -205 69 -29 20 -58 36 -65 36
-6 0 -20 9 -30 20 -10 11 -28 20 -41 20 -39 0 -75 40 -81 90 -4 38 2 60 39
140 25 52 56 111 70 132 22 33 36 72 52 149 5 23 14 29 58 39 71 17 153 59
141 71 -6 6 -56 23 -112 40 -114 33 -143 48 -159 85 -14 30 -15 135 -2 224 5
37 6 86 1 115 -8 46 -15 38 -11 -12 1 -12 -9 -72 -21 -134 -15 -76 -20 -128
-15 -164 l6 -54 -45 -7 c-25 -3 -45 -11 -45 -16 0 -21 42 -78 82 -111 37 -31
41 -39 44 -88 3 -39 -2 -64 -15 -89 -86 -162 -112 -228 -114 -301 -2 -47 2
-60 26 -90 38 -45 83 -69 130 -69 64 0 171 -91 274 -231 76 -103 133 -135 229
-127 63 5 127 44 159 97 101 166 195 290 236 312 14 7 29 7 53 -2 43 -15 81
-5 117 31 26 25 29 36 29 91 0 50 -8 79 -41 158 -23 53 -55 126 -70 163 -37
85 -38 131 -3 155 59 41 86 68 116 111 l31 45 -76 -5 c-71 -5 -75 -4 -67 13
15 28 12 97 -10 199 -11 51 -20 114 -21 139 0 25 -4 55 -9 66 -5 12 -7 -18 -4
-75z m0 -411 c11 -18 -13 -34 -31 -19 -8 7 -15 16 -15 21 0 13 38 11 46 -2z
m-940 -10 c3 -6 19 -9 35 -7 34 5 36 -2 10 -26 -24 -22 -71 -6 -71 24 0 22 15
27 26 9z m881 -10 c22 -14 45 -20 63 -17 39 6 38 0 -5 -18 -48 -20 -108 -18
-136 5 l-23 18 30 16 c37 20 31 21 71 -4z m-850 -49 c14 0 40 9 57 19 27 17
36 18 56 8 37 -19 34 -33 -12 -47 -55 -16 -117 -15 -161 3 -28 12 -34 20 -34
45 l0 31 34 -29 c19 -17 45 -30 60 -30z"/>
<path d="M571 2224 c0 -11 3 -14 6 -6 3 7 2 16 -1 19 -3 4 -6 -2 -5 -13z"/>
<path d="M1040 1370 c-7 -13 -21 -20 -39 -20 -31 0 -57 -22 -46 -40 3 -5 -1
-10 -10 -10 -8 0 -24 15 -35 33 -11 17 -20 28 -20 23 0 -6 12 -27 26 -47 25
-36 25 -38 9 -63 -10 -14 -21 -26 -25 -26 -20 0 -39 13 -34 22 4 6 -3 5 -15
-1 -17 -10 -22 -9 -28 4 -10 27 -23 -3 -23 -52 0 -53 19 -74 88 -96 28 -10 68
-28 87 -42 20 -13 57 -27 83 -31 38 -6 54 -3 87 16 22 12 75 40 118 63 l77 40
1 61 c2 83 0 99 -16 114 -10 11 -14 7 -19 -22 -6 -33 -29 -56 -55 -56 -6 0
-11 16 -11 35 0 22 -8 44 -20 57 -11 12 -20 29 -20 37 -1 13 -2 13 -11 -1 -14
-25 -65 -24 -79 2 -6 12 -21 20 -35 20 -14 0 -29 -8 -35 -20z m-80 -112 c0
-19 -18 -44 -25 -36 -4 3 0 15 7 27 15 24 18 26 18 9z"/>
<path d="M826 1284 c-5 -14 -4 -15 9 -4 17 14 19 20 6 20 -5 0 -12 -7 -15 -16z"/>
<path d="M1035 461 l-30 -7 33 -7 c19 -4 45 -4 58 -1 24 6 24 5 25 -62 l1 -69
22 67 21 68 44 0 c24 0 42 2 40 4 -9 8 -186 14 -214 7z"/>
<path d="M977 443 c-12 -11 -8 -95 7 -143 l13 -45 1 86 c1 82 -7 117 -21 102z"/>
<path d="M1132 270 c0 -14 2 -19 5 -12 2 6 2 18 0 25 -3 6 -5 1 -5 -13z"/>
</g>
</svg>
